<mxfile host="app.diagrams.net" modified="2023-11-02T10:32:53.160Z" agent="Mozilla/5.0 (X11; Ubuntu; Linux x86_64; rv:109.0) Gecko/20100101 Firefox/119.0" etag="ldRkT1TAkVNsW5m1ry6n" version="21.2.9" type="device">
  <diagram id="R2lEEEUBdFMjLlhIrx00" name="Page-1">
    <mxGraphModel dx="1364" dy="850" grid="1" gridSize="10" guides="1" tooltips="1" connect="1" arrows="1" fold="1" page="1" pageScale="1" pageWidth="850" pageHeight="1100" math="0" shadow="0" extFonts="Permanent Marker^https://fonts.googleapis.com/css?family=Permanent+Marker">
      <root>
        <mxCell id="0" />
        <mxCell id="1" parent="0" />
        <mxCell id="OGZndYQOg1xNEmqw5Wzr-10" value="" style="rounded=0;whiteSpace=wrap;html=1;dashed=1;strokeColor=#090765;strokeWidth=1;fillColor=#9694DE;" parent="1" vertex="1">
          <mxGeometry x="720" y="320" width="270" height="190" as="geometry" />
        </mxCell>
        <mxCell id="GybCl5w8vhItavz9TYpU-22" value="" style="rounded=0;whiteSpace=wrap;html=1;dashed=1;strokeColor=#090765;strokeWidth=1;fillColor=#9694DE;" parent="1" vertex="1">
          <mxGeometry x="380" y="230" width="270" height="240" as="geometry" />
        </mxCell>
        <mxCell id="GybCl5w8vhItavz9TYpU-20" value="" style="rounded=0;whiteSpace=wrap;html=1;dashed=1;strokeColor=#090765;strokeWidth=1;fillColor=#9694de;" parent="1" vertex="1">
          <mxGeometry x="30" y="120" width="290" height="350" as="geometry" />
        </mxCell>
        <mxCell id="GybCl5w8vhItavz9TYpU-8" style="edgeStyle=orthogonalEdgeStyle;rounded=0;orthogonalLoop=1;jettySize=auto;html=1;entryX=0;entryY=0.5;entryDx=0;entryDy=0;" parent="1" source="GybCl5w8vhItavz9TYpU-1" target="GybCl5w8vhItavz9TYpU-2" edge="1">
          <mxGeometry relative="1" as="geometry" />
        </mxCell>
        <mxCell id="GybCl5w8vhItavz9TYpU-13" style="edgeStyle=orthogonalEdgeStyle;curved=1;rounded=0;orthogonalLoop=1;jettySize=auto;html=1;exitX=0.5;exitY=1;exitDx=0;exitDy=0;entryX=0;entryY=0.5;entryDx=0;entryDy=0;" parent="1" source="GybCl5w8vhItavz9TYpU-1" target="GybCl5w8vhItavz9TYpU-3" edge="1">
          <mxGeometry relative="1" as="geometry">
            <mxPoint x="120" y="350" as="targetPoint" />
          </mxGeometry>
        </mxCell>
        <mxCell id="GybCl5w8vhItavz9TYpU-1" value="Organization&lt;br&gt;(data controller)" style="rounded=1;arcSize=10;whiteSpace=wrap;html=1;align=center;strokeWidth=3;strokeColor=#090765;" parent="1" vertex="1">
          <mxGeometry x="50" y="260" width="100" height="40" as="geometry" />
        </mxCell>
        <mxCell id="GybCl5w8vhItavz9TYpU-10" style="edgeStyle=orthogonalEdgeStyle;rounded=0;orthogonalLoop=1;jettySize=auto;html=1;entryX=0.5;entryY=0;entryDx=0;entryDy=0;curved=1;" parent="1" source="GybCl5w8vhItavz9TYpU-2" target="GybCl5w8vhItavz9TYpU-3" edge="1">
          <mxGeometry relative="1" as="geometry" />
        </mxCell>
        <mxCell id="GybCl5w8vhItavz9TYpU-2" value="Policy&lt;br&gt;(data policy)" style="rounded=1;arcSize=10;whiteSpace=wrap;html=1;align=center;strokeWidth=3;strokeColor=#090765;" parent="1" vertex="1">
          <mxGeometry x="200" y="260" width="100" height="40" as="geometry" />
        </mxCell>
        <mxCell id="GybCl5w8vhItavz9TYpU-14" style="edgeStyle=orthogonalEdgeStyle;curved=1;rounded=0;orthogonalLoop=1;jettySize=auto;html=1;exitX=1;exitY=0.5;exitDx=0;exitDy=0;entryX=0.25;entryY=1;entryDx=0;entryDy=0;" parent="1" source="GybCl5w8vhItavz9TYpU-3" target="GybCl5w8vhItavz9TYpU-6" edge="1">
          <mxGeometry relative="1" as="geometry">
            <Array as="points">
              <mxPoint x="370" y="360" />
              <mxPoint x="370" y="320" />
              <mxPoint x="555" y="320" />
            </Array>
          </mxGeometry>
        </mxCell>
        <mxCell id="GybCl5w8vhItavz9TYpU-3" value="Data Agreement" style="rounded=1;arcSize=10;whiteSpace=wrap;html=1;align=center;strokeWidth=3;strokeColor=#090765;" parent="1" vertex="1">
          <mxGeometry x="200" y="335" width="100" height="40" as="geometry" />
        </mxCell>
        <mxCell id="GybCl5w8vhItavz9TYpU-17" style="edgeStyle=orthogonalEdgeStyle;curved=1;rounded=0;orthogonalLoop=1;jettySize=auto;html=1;entryX=1;entryY=0.25;entryDx=0;entryDy=0;dashed=1;" parent="1" source="GybCl5w8vhItavz9TYpU-4" target="GybCl5w8vhItavz9TYpU-6" edge="1">
          <mxGeometry relative="1" as="geometry" />
        </mxCell>
        <mxCell id="GybCl5w8vhItavz9TYpU-4" value="Data Consumer or Data Provider reads Consent Records" style="rounded=1;arcSize=10;whiteSpace=wrap;html=1;align=center;dashed=1;" parent="1" vertex="1">
          <mxGeometry x="690" y="230" width="130" height="60" as="geometry" />
        </mxCell>
        <mxCell id="GybCl5w8vhItavz9TYpU-5" value="Individual" style="rounded=1;arcSize=10;whiteSpace=wrap;html=1;align=center;strokeWidth=3;strokeColor=#090765;" parent="1" vertex="1">
          <mxGeometry x="390" y="250" width="100" height="40" as="geometry" />
        </mxCell>
        <mxCell id="OGZndYQOg1xNEmqw5Wzr-5" style="edgeStyle=orthogonalEdgeStyle;rounded=0;orthogonalLoop=1;jettySize=auto;html=1;exitX=1;exitY=0.75;exitDx=0;exitDy=0;entryX=0;entryY=0.5;entryDx=0;entryDy=0;curved=1;" parent="1" source="GybCl5w8vhItavz9TYpU-6" target="OGZndYQOg1xNEmqw5Wzr-1" edge="1">
          <mxGeometry relative="1" as="geometry" />
        </mxCell>
        <mxCell id="GybCl5w8vhItavz9TYpU-6" value="Consent Record" style="rounded=1;arcSize=10;whiteSpace=wrap;html=1;align=center;strokeWidth=3;strokeColor=#090765;" parent="1" vertex="1">
          <mxGeometry x="530" y="250" width="100" height="40" as="geometry" />
        </mxCell>
        <mxCell id="GybCl5w8vhItavz9TYpU-16" style="edgeStyle=orthogonalEdgeStyle;curved=1;rounded=0;orthogonalLoop=1;jettySize=auto;html=1;exitX=0.5;exitY=1;exitDx=0;exitDy=0;entryX=0.5;entryY=0;entryDx=0;entryDy=0;dashed=1;" parent="1" source="GybCl5w8vhItavz9TYpU-7" target="GybCl5w8vhItavz9TYpU-5" edge="1">
          <mxGeometry relative="1" as="geometry" />
        </mxCell>
        <mxCell id="GybCl5w8vhItavz9TYpU-7" value="External Registration&lt;br&gt;(functional ID or foundational ID)" style="rounded=1;arcSize=10;whiteSpace=wrap;html=1;align=center;dashed=1;" parent="1" vertex="1">
          <mxGeometry x="380" y="120" width="120" height="70" as="geometry" />
        </mxCell>
        <mxCell id="GybCl5w8vhItavz9TYpU-18" value="&lt;div&gt;External system&lt;/div&gt;" style="rounded=1;arcSize=10;whiteSpace=wrap;html=1;align=center;dashed=1;strokeColor=#000000;strokeWidth=1;" parent="1" vertex="1">
          <mxGeometry x="890" y="260" width="100" height="40" as="geometry" />
        </mxCell>
        <mxCell id="GybCl5w8vhItavz9TYpU-19" value="Internal model" style="rounded=1;arcSize=10;whiteSpace=wrap;html=1;align=center;strokeWidth=3;strokeColor=#090765;" parent="1" vertex="1">
          <mxGeometry x="890" y="210" width="100" height="40" as="geometry" />
        </mxCell>
        <mxCell id="GybCl5w8vhItavz9TYpU-21" value="&lt;h1&gt;Configuration&lt;/h1&gt;&lt;p&gt;In the extended model, we add &quot;Data Agreement Attributes&quot;, which can specify what exact data is being processed in the Agreement. The Agreement is revisioned and every revision is signed.&lt;br&gt;&lt;/p&gt;" style="text;html=1;strokeColor=none;fillColor=none;spacing=5;spacingTop=-20;whiteSpace=wrap;overflow=hidden;rounded=0;dashed=1;fontColor=#090765;" parent="1" vertex="1">
          <mxGeometry x="35" y="130" width="280" height="120" as="geometry" />
        </mxCell>
        <mxCell id="GybCl5w8vhItavz9TYpU-23" value="&lt;h1&gt;Individual consent&lt;br&gt;&lt;/h1&gt;&lt;p&gt;When consent is captured, consent &lt;br&gt;records are linked to an individual (natural identity can be anonymized). These records are available for data consumers and providers  to confirm/verify consent.&lt;br&gt;&lt;/p&gt;" style="text;html=1;strokeColor=none;fillColor=none;spacing=5;spacingTop=-20;whiteSpace=wrap;overflow=hidden;rounded=0;dashed=1;fontColor=#090765;" parent="1" vertex="1">
          <mxGeometry x="390" y="330" width="250" height="130" as="geometry" />
        </mxCell>
        <mxCell id="GybCl5w8vhItavz9TYpU-24" value="Consent Building Block&lt;br&gt;Elaborated Model" style="text;strokeColor=none;fillColor=none;html=1;fontSize=24;fontStyle=1;verticalAlign=middle;align=center;dashed=1;fontColor=#090765;" parent="1" vertex="1">
          <mxGeometry x="700" y="110" width="290" height="60" as="geometry" />
        </mxCell>
        <mxCell id="GybCl5w8vhItavz9TYpU-25" value="" style="endArrow=classic;html=1;rounded=0;curved=1;" parent="1" edge="1">
          <mxGeometry width="50" height="50" relative="1" as="geometry">
            <mxPoint x="970" y="198" as="sourcePoint" />
            <mxPoint x="910" y="198" as="targetPoint" />
          </mxGeometry>
        </mxCell>
        <mxCell id="GybCl5w8vhItavz9TYpU-26" value="1:many" style="text;html=1;strokeColor=none;fillColor=none;align=center;verticalAlign=middle;whiteSpace=wrap;rounded=0;dashed=1;" parent="1" vertex="1">
          <mxGeometry x="910" y="170" width="60" height="30" as="geometry" />
        </mxCell>
        <mxCell id="GybCl5w8vhItavz9TYpU-27" style="edgeStyle=orthogonalEdgeStyle;curved=1;rounded=0;orthogonalLoop=1;jettySize=auto;html=1;exitX=0.5;exitY=1;exitDx=0;exitDy=0;" parent="1" source="GybCl5w8vhItavz9TYpU-26" target="GybCl5w8vhItavz9TYpU-26" edge="1">
          <mxGeometry relative="1" as="geometry" />
        </mxCell>
        <mxCell id="OGZndYQOg1xNEmqw5Wzr-4" style="edgeStyle=orthogonalEdgeStyle;rounded=0;orthogonalLoop=1;jettySize=auto;html=1;exitX=1;exitY=0.5;exitDx=0;exitDy=0;" parent="1" source="OGZndYQOg1xNEmqw5Wzr-1" target="OGZndYQOg1xNEmqw5Wzr-2" edge="1">
          <mxGeometry relative="1" as="geometry" />
        </mxCell>
        <mxCell id="OGZndYQOg1xNEmqw5Wzr-1" value="Revision" style="rounded=1;arcSize=10;whiteSpace=wrap;html=1;align=center;strokeWidth=3;strokeColor=#090765;" parent="1" vertex="1">
          <mxGeometry x="750" y="450" width="100" height="40" as="geometry" />
        </mxCell>
        <mxCell id="OGZndYQOg1xNEmqw5Wzr-2" value="Signature" style="rounded=1;arcSize=10;whiteSpace=wrap;html=1;align=center;strokeWidth=3;strokeColor=#090765;" parent="1" vertex="1">
          <mxGeometry x="870" y="450" width="100" height="40" as="geometry" />
        </mxCell>
        <mxCell id="OGZndYQOg1xNEmqw5Wzr-6" value="Data Agreement Attributes" style="rounded=1;arcSize=10;whiteSpace=wrap;html=1;align=center;strokeWidth=3;strokeColor=#090765;" parent="1" vertex="1">
          <mxGeometry x="200" y="410" width="100" height="40" as="geometry" />
        </mxCell>
        <mxCell id="OGZndYQOg1xNEmqw5Wzr-7" value="" style="endArrow=classic;html=1;rounded=0;curved=1;exitX=0.5;exitY=1;exitDx=0;exitDy=0;entryX=0.5;entryY=0;entryDx=0;entryDy=0;" parent="1" source="GybCl5w8vhItavz9TYpU-3" target="OGZndYQOg1xNEmqw5Wzr-6" edge="1">
          <mxGeometry width="50" height="50" relative="1" as="geometry">
            <mxPoint x="370" y="420" as="sourcePoint" />
            <mxPoint x="360" y="490" as="targetPoint" />
          </mxGeometry>
        </mxCell>
        <mxCell id="OGZndYQOg1xNEmqw5Wzr-9" value="" style="curved=1;endArrow=classic;html=1;rounded=0;exitX=0.75;exitY=1;exitDx=0;exitDy=0;entryX=0;entryY=1;entryDx=0;entryDy=0;" parent="1" source="GybCl5w8vhItavz9TYpU-3" target="OGZndYQOg1xNEmqw5Wzr-1" edge="1">
          <mxGeometry width="50" height="50" relative="1" as="geometry">
            <mxPoint x="370" y="650" as="sourcePoint" />
            <mxPoint x="420" y="600" as="targetPoint" />
            <Array as="points">
              <mxPoint x="370" y="440" />
              <mxPoint x="370" y="490" />
              <mxPoint x="500" y="510" />
            </Array>
          </mxGeometry>
        </mxCell>
        <mxCell id="OGZndYQOg1xNEmqw5Wzr-11" value="&lt;h1&gt;Auditing&lt;br&gt;&lt;/h1&gt;&lt;p&gt;All components in the system subject to tamper-resistance and auditability keep a revision log and revisions are signed by legal parties.&lt;br&gt;&lt;/p&gt;" style="text;html=1;strokeColor=none;fillColor=none;spacing=5;spacingTop=-20;whiteSpace=wrap;overflow=hidden;rounded=0;dashed=1;fontColor=#090765;" parent="1" vertex="1">
          <mxGeometry x="730" y="330" width="250" height="130" as="geometry" />
        </mxCell>
        <mxCell id="OGZndYQOg1xNEmqw5Wzr-24" value="" style="edgeStyle=orthogonalEdgeStyle;curved=1;rounded=0;orthogonalLoop=1;jettySize=auto;html=1;fontColor=#3333FF;strokeWidth=4;strokeColor=#9694DE;" parent="1" source="OGZndYQOg1xNEmqw5Wzr-20" target="OGZndYQOg1xNEmqw5Wzr-22" edge="1">
          <mxGeometry relative="1" as="geometry" />
        </mxCell>
        <mxCell id="OGZndYQOg1xNEmqw5Wzr-20" value="DEFINITION" style="text;strokeColor=none;fillColor=none;html=1;fontSize=24;fontStyle=1;verticalAlign=middle;align=center;fontColor=#9694DE;rotation=40;" parent="1" vertex="1">
          <mxGeometry x="30" y="560" width="150" height="40" as="geometry" />
        </mxCell>
        <mxCell id="OGZndYQOg1xNEmqw5Wzr-26" style="edgeStyle=orthogonalEdgeStyle;curved=1;rounded=0;orthogonalLoop=1;jettySize=auto;html=1;fontColor=#3333FF;strokeColor=#9694DE;strokeWidth=4;" parent="1" source="OGZndYQOg1xNEmqw5Wzr-22" target="OGZndYQOg1xNEmqw5Wzr-25" edge="1">
          <mxGeometry relative="1" as="geometry" />
        </mxCell>
        <mxCell id="OGZndYQOg1xNEmqw5Wzr-22" value="PREPARATION" style="text;strokeColor=none;fillColor=none;html=1;fontSize=24;fontStyle=1;verticalAlign=middle;align=center;fontColor=#9694DE;rotation=40;" parent="1" vertex="1">
          <mxGeometry x="203" y="560" width="170" height="40" as="geometry" />
        </mxCell>
        <mxCell id="OGZndYQOg1xNEmqw5Wzr-25" value="CAPTURE" style="text;strokeColor=none;fillColor=none;html=1;fontSize=24;fontStyle=1;verticalAlign=middle;align=center;fontColor=#9694DE;rotation=40;" parent="1" vertex="1">
          <mxGeometry x="471" y="560" width="140" height="40" as="geometry" />
        </mxCell>
        <mxCell id="OGZndYQOg1xNEmqw5Wzr-29" style="edgeStyle=orthogonalEdgeStyle;curved=1;rounded=0;orthogonalLoop=1;jettySize=auto;html=1;exitX=0.5;exitY=1;exitDx=0;exitDy=0;fontColor=#3333FF;strokeColor=#9694DE;strokeWidth=4;entryX=1;entryY=0;entryDx=0;entryDy=0;" parent="1" source="OGZndYQOg1xNEmqw5Wzr-25" target="OGZndYQOg1xNEmqw5Wzr-25" edge="1">
          <mxGeometry relative="1" as="geometry">
            <Array as="points">
              <mxPoint x="528" y="680" />
              <mxPoint x="670" y="680" />
              <mxPoint x="670" y="610" />
            </Array>
            <mxPoint x="620" y="670" as="targetPoint" />
          </mxGeometry>
        </mxCell>
        <mxCell id="OGZndYQOg1xNEmqw5Wzr-30" value="PROOF" style="text;strokeColor=none;fillColor=none;html=1;fontSize=24;fontStyle=1;verticalAlign=middle;align=center;fontColor=#9694DE;rotation=40;" parent="1" vertex="1">
          <mxGeometry x="740" y="560" width="110" height="40" as="geometry" />
        </mxCell>
        <mxCell id="OGZndYQOg1xNEmqw5Wzr-32" value="LIFECYCLE" style="text;strokeColor=none;fillColor=none;html=1;fontSize=68;fontStyle=0;verticalAlign=middle;align=center;fontColor=#9694DE;" parent="1" vertex="1">
          <mxGeometry x="140" y="650" width="160" height="50" as="geometry" />
        </mxCell>
        <mxCell id="xHV_GOV7RMx6nkig8Bfr-3" value="" style="endArrow=classic;html=1;rounded=0;fontSize=68;fontColor=#090765;strokeColor=#9694DE;strokeWidth=4;entryX=0.25;entryY=1;entryDx=0;entryDy=0;" parent="1" target="OGZndYQOg1xNEmqw5Wzr-30" edge="1">
          <mxGeometry width="50" height="50" relative="1" as="geometry">
            <mxPoint x="580" y="580" as="sourcePoint" />
            <mxPoint x="710" y="580" as="targetPoint" />
          </mxGeometry>
        </mxCell>
        <mxCell id="xHV_GOV7RMx6nkig8Bfr-4" value="" style="endArrow=classic;html=1;rounded=0;fontSize=68;fontColor=#090765;strokeColor=#000000;strokeWidth=1;exitX=1;exitY=0.5;exitDx=0;exitDy=0;entryX=0;entryY=0.5;entryDx=0;entryDy=0;" parent="1" source="GybCl5w8vhItavz9TYpU-5" target="GybCl5w8vhItavz9TYpU-6" edge="1">
          <mxGeometry width="50" height="50" relative="1" as="geometry">
            <mxPoint x="510" y="330" as="sourcePoint" />
            <mxPoint x="560" y="280" as="targetPoint" />
          </mxGeometry>
        </mxCell>
      </root>
    </mxGraphModel>
  </diagram>
</mxfile>
